<svg xmlns="http://www.w3.org/2000/svg" viewBox="0 0 2000 400" preserveAspectRatio="xMidYMax slice">
  <!-- Atlanta Skyline Silhouette -->
  <!-- Features: Bank of America Plaza (pyramid top), One Atlantic Center, and other iconic buildings -->
  <path d="M 0,400 L 0,320 L 40,320 L 40,280 L 80,280 L 80,300 L 120,300 L 120,260 L 160,260 L 160,400
           M 180,400 L 180,240 L 220,240 L 220,220 L 240,220 L 240,240 L 280,240 L 280,400
           M 300,400 L 300,180 L 340,180 L 340,160 L 360,160 L 360,140 L 380,140 L 380,160 L 400,160 L 400,180 L 440,180 L 440,400
           M 460,400 L 460,200 L 500,200 L 500,400
           M 520,400 L 520,280 L 560,280 L 560,400
           M 580,400 L 580,90 L 600,90 L 600,70 L 610,70 L 610,50 L 620,50 L 620,30 L 625,30 L 625,20 L 630,20 L 630,10 L 635,10 L 640,5 L 645,10 L 650,10 L 650,20 L 655,20 L 655,30 L 660,30 L 660,50 L 670,50 L 670,70 L 680,70 L 680,90 L 700,90 L 700,400
           M 720,400 L 720,140 L 760,140 L 760,120 L 780,120 L 780,140 L 820,140 L 820,400
           M 840,400 L 840,220 L 880,220 L 880,400
           M 900,400 L 900,160 L 940,160 L 940,400
           M 960,400 L 960,240 L 1000,240 L 1000,400
           M 1020,400 L 1020,200 L 1040,200 L 1040,180 L 1060,180 L 1060,200 L 1080,200 L 1080,400
           M 1100,400 L 1100,260 L 1140,260 L 1140,400
           M 1160,400 L 1160,300 L 1200,300 L 1200,280 L 1220,280 L 1220,300 L 1260,300 L 1260,400
           M 1280,400 L 1280,180 L 1320,180 L 1320,400
           M 1340,400 L 1340,240 L 1360,240 L 1360,220 L 1370,220 L 1370,210 L 1380,210 L 1380,220 L 1390,220 L 1390,240 L 1410,240 L 1410,400
           M 1430,400 L 1430,280 L 1470,280 L 1470,400
           M 1490,400 L 1490,120 L 1530,120 L 1530,100 L 1550,100 L 1550,120 L 1590,120 L 1590,400
           M 1610,400 L 1610,220 L 1650,220 L 1650,400
           M 1670,400 L 1670,260 L 1710,260 L 1710,400
           M 1730,400 L 1730,300 L 1750,300 L 1750,280 L 1770,280 L 1770,300 L 1790,300 L 1790,400
           M 1810,400 L 1810,200 L 1850,200 L 1850,400
           M 1870,400 L 1870,160 L 1910,160 L 1910,140 L 1930,140 L 1930,160 L 1970,160 L 1970,400
           M 1990,400 L 1990,280 L 2000,280 L 2000,400 Z"
        fill="#FFFFFF"/>
</svg>
